# xmcd
#
# Track frame offsets: 
#        150
#        10175
#        24786
#        40290
#        56412
#        72087
#        86748
#        99875
#        115933
#        131733
#        149719
#        168701
#        178664
#        192245
#        205816
#        217881
#        227438
#        242191
#        251959
#        265217
#        281310
#        291785
#        304769
#        318535
#
# Disc length: 4443 seconds
#
# Revision: 5
# Processed by: cddbd v1.5.2PL0 Copyright (c) Steve Scherf et al.
# Submitted via: ExactAudioCopyFreeDBPlugin 1.0
#
DISCID=5e115918
DTITLE=Ray Charles - 1962 - The Complete Country and Western Recordings:
DTITLE=1959-1986 Cd 1
DYEAR=1962
DGENRE=Country
TTITLE0=Bye, Bye Love
TTITLE1=You Don't Know Me
TTITLE2=Half As Much
TTITLE3=I Love You So Much It Hurts
TTITLE4=Just a Little Lovin'
TTITLE5=Born to Lose
TTITLE6=Worried Mind
TTITLE7=It Makes No Difference Now
TTITLE8=You Win Again
TTITLE9=Careless Love
TTITLE10=I Cant' Stop Loving You
TTITLE11=Hey, Good Lookin'
TTITLE12=You Are My Sinshine
TTITLE13=No Letter Today
TTITLE14=Someday (You'll Want Me to Want You)
TTITLE15=Don't Tell Me Your Troubles
TTITLE16=Midnight
TTITLE17=Oh, Lonesome Me
TTITLE18=Take These Chains from My Heart
TTITLE19=Your Cheating Heart
TTITLE20=I'll Never Stand in Your Way
TTITLE21=Making Believe
TTITLE22=Teardrops in My Heart
TTITLE23=Hang Your Head in Shame
EXTD=Part of 4-disk box set
EXTT0=
EXTT1=
EXTT2=
EXTT3=
EXTT4=
EXTT5=
EXTT6=
EXTT7=
EXTT8=
EXTT9=
EXTT10=
EXTT11=
EXTT12=
EXTT13=
EXTT14=
EXTT15=
EXTT16=
EXTT17=
EXTT18=
EXTT19=
EXTT20=
EXTT21=
EXTT22=
EXTT23=
PLAYORDER=
